<?xml version="1.0" encoding="utf-8"?>
<!-- Generator: Adobe Illustrator 23.0.0, SVG Export Plug-In . SVG Version: 6.00 Build 0)  -->
<svg version="1.1" id="Layer_1" xmlns="http://www.w3.org/2000/svg" xmlns:xlink="http://www.w3.org/1999/xlink" x="0px" y="0px"
	 viewBox="0 0 60 60" style="enable-background:new 0 0 60 60;" xml:space="preserve">
<style type="text/css">
	
		.st0{fill-rule:evenodd;clip-rule:evenodd;fill:#2B7052;stroke:#2B7052;stroke-width:5;stroke-linecap:round;stroke-linejoin:round;}
	.st1{fill:#FCFCFC;}
	.st2{fill:#2B7052;stroke:#2B7052;stroke-width:5;stroke-linecap:round;stroke-linejoin:round;}
</style>
<path class="st0" d="M21.9,45.9L6.2,57.2l9.6-16.6L21.9,45.9L21.9,45.9z"/>
<path class="st0" d="M20.5,46.5l-5.1-4.9L48.2,2.8l5.1,4.9L20.5,46.5z"/>
<g>
	<path class="st1" d="M32,34.2c-0.6,0.1-1.2-0.2-1.8-0.7c-0.5-0.5-1-1.1-1.5-1.8S28,30,27.9,29.2c-0.1-0.9,0.2-1.7,0.8-2.4
		c0.7-0.8,1.5-1,2.2-0.3c0.4,0.4,0.7,0.8,0.9,1.4c0.1,0.6,0.2,1.1,0,1.7c-0.1,0.6-0.4,1.1-0.8,1.6c0.2,0.2,0.4,0.4,0.4,0.4
		c0.4,0.3,0.7,0.5,0.9,0.5c0.2,0,0.5-0.2,0.8-0.5c0.4-0.4,0.6-0.9,0.6-1.3c0.1-0.5,0.1-1,0-1.7l0.3-0.4c0.7,2.1,0.5,3.8-0.6,5
		C33.1,33.8,32.6,34.1,32,34.2z M31.1,29.6c0-0.4,0-0.8-0.2-1.2c-0.1-0.4-0.4-0.7-0.7-1c-0.3-0.3-0.6-0.3-0.7-0.1
		c-0.2,0.3-0.2,0.8,0,1.4c0.3,0.7,0.6,1.4,1.2,2C30.9,30.4,31,30,31.1,29.6z"/>
	<path class="st1" d="M35.8,29.8c-0.6,0-1.2-0.2-1.8-0.8c-0.6-0.5-1.1-1.1-1.5-1.9c-0.4-0.8-0.7-1.6-0.7-2.4c0-0.8,0.2-1.6,0.7-2.2
		c0.3-0.3,0.5-0.5,0.8-0.6c0.2-0.1,0.5,0,0.6,0.1l0,0l-2.2-2.9l1.2-1.9l5.1,6.7c0.1,0.1,0.2,0.3,0.3,0.4c0.2,0.1,0.3,0.2,0.4,0.2
		c0.1,0,0.3-0.1,0.4-0.3c0.2-0.2,0.3-0.5,0.2-0.8c0-0.3-0.2-0.7-0.4-1l0.4-0.5c1,1.7,1,3,0.1,4.1c-0.3,0.3-0.6,0.5-0.9,0.6
		c-0.3,0-0.7,0-1.1-0.3c0.1,0.5,0.2,0.9,0.1,1.4c0,0.5-0.2,0.9-0.6,1.3C36.8,29.5,36.4,29.7,35.8,29.8z M37,26.6
		c0-0.3-0.1-0.7-0.4-1l-0.1-0.1l-2.2-2.9c-0.3-0.2-0.6-0.1-0.8,0.1c-0.3,0.3-0.3,0.7-0.2,1.3c0.1,0.6,0.4,1.1,0.8,1.7
		c0.4,0.6,0.8,1,1.2,1.4c0.4,0.3,0.7,0.5,0.9,0.5c0.2,0,0.4-0.1,0.5-0.3C36.9,27.2,37,26.9,37,26.6z"/>
	<path class="st1" d="M41.1,23.8c-0.4,0-0.9-0.2-1.3-0.6c-0.2-0.2-0.4-0.4-0.7-0.7l-3-4l1.4-1.7l3.2,4.2c0.1,0.1,0.2,0.3,0.3,0.4
		c0.2,0.1,0.3,0.2,0.4,0.2c0.1,0,0.3-0.1,0.4-0.3c0.2-0.2,0.3-0.5,0.3-0.9c0-0.4-0.1-0.7-0.4-1.1l0.4-0.5c0.6,1,0.8,1.9,0.7,2.6
		c-0.1,0.7-0.3,1.3-0.7,1.7C41.9,23.6,41.6,23.8,41.1,23.8z M35.6,17.3c-0.3,0-0.6-0.1-0.9-0.3c-0.3-0.2-0.4-0.5-0.4-0.8
		c0-0.3,0.1-0.6,0.3-0.9c0.2-0.3,0.5-0.4,0.8-0.4c0.3,0,0.6,0.1,0.9,0.3c0.3,0.2,0.4,0.5,0.4,0.8c0,0.3-0.1,0.6-0.3,0.9
		C36.2,17.1,36,17.2,35.6,17.3z"/>
	<path class="st1" d="M43.8,20.8c-0.4,0-0.8-0.2-1.2-0.5c-0.2-0.2-0.4-0.4-0.6-0.6l-2.8-3.7l-0.3,0.4l-0.4-0.5l0.3-0.4l-1.3-1.7
		l1.2-1.9c0.2,0.3,0.4,0.5,0.4,0.6c0.2,0.2,0.5,0.7,1.1,1.4l0.6-0.7l0.4,0.5l-0.6,0.7l2.8,3.7c0.1,0.2,0.3,0.3,0.4,0.4
		c0.3,0.2,0.5,0.2,0.8,0c0.1-0.1,0.2-0.2,0.2-0.3c0.3,0.5,0.5,1,0.4,1.3c0,0.3-0.1,0.6-0.4,0.9C44.5,20.6,44.2,20.8,43.8,20.8z"/>
</g>
<line class="st2" x1="55" y1="54.6" x2="17.2" y2="55.5"/>
</svg>
