<?xml version="1.0" encoding="utf-8"?>
<!-- Generator: Adobe Illustrator 23.0.0, SVG Export Plug-In . SVG Version: 6.00 Build 0)  -->
<svg version="1.1" id="Layer_1" xmlns="http://www.w3.org/2000/svg" xmlns:xlink="http://www.w3.org/1999/xlink" x="0px" y="0px"
	 viewBox="0 0 119.1 46.1" style="enable-background:new 0 0 119.1 46.1;" xml:space="preserve">
<style type="text/css">
	.st0{fill-rule:evenodd;clip-rule:evenodd;fill:#4C7061;}
</style>
<path class="st0" d="M114.5,11.8H2.5c-0.8,0-1.5-0.7-1.5-1.5V8.6c0-0.8,0.7-1.5,1.5-1.5h112c0.8,0,1.5,0.7,1.5,1.5v1.7
	C116,11.1,115.3,11.8,114.5,11.8z"/>
<path class="st0" d="M114.5,24.8H2.5c-0.8,0-1.5-0.7-1.5-1.5v-1.7c0-0.8,0.7-1.5,1.5-1.5h112c0.8,0,1.5,0.7,1.5,1.5v1.7
	C116,24.1,115.3,24.8,114.5,24.8z"/>
<path class="st0" d="M114.5,37.8H2.5c-0.8,0-1.5-0.7-1.5-1.5v-1.7c0-0.8,0.7-1.5,1.5-1.5h112c0.8,0,1.5,0.7,1.5,1.5v1.7
	C116,37.1,115.3,37.8,114.5,37.8z"/>
</svg>
