<?xml version="1.0" encoding="utf-8"?>
<!-- Generator: Adobe Illustrator 23.0.0, SVG Export Plug-In . SVG Version: 6.00 Build 0)  -->
<svg version="1.1" id="Layer_1" xmlns="http://www.w3.org/2000/svg" xmlns:xlink="http://www.w3.org/1999/xlink" x="0px" y="0px"
	 viewBox="0 0 800 800" style="enable-background:new 0 0 800 800;" xml:space="preserve">
<style type="text/css">
	.st0{fill-rule:evenodd;clip-rule:evenodd;fill:#2B7052;}
	.st1{fill:#2B7052;}
</style>
<g transform="translate(0 -252.36)">
	<path class="st0" d="M359.5,341.2c-134.6,3.5-183,131.5-190.1,200.4c-27.3,347-81,359.8-146.1,363.3c-17.9,0-17.6,29.7,0,29.7
		h753.4c17.6,0,17.9-29.7,0-29.7c-65.1-3.5-118.8-21.5-146.1-368.5c-5.8-65-55.5-191.8-190-195.3
		C440.5,221.8,360.6,224.8,359.5,341.2L359.5,341.2z"/>
	<path shape-rendering="auto" image-rendering="auto" color-rendering="auto" class="st1" d="M323.1,950.4c-2.1,7.1-3.1,14.5-3.1,22
		c0,44.2,35.8,80,80,80c0,0,0,0,0,0c44.2,0,80-35.8,80-80c0,0,0,0,0,0c0-7.4-1-14.8-3.1-22L323.1,950.4L323.1,950.4z"/>
</g>
</svg>
