<?xml version="1.0" encoding="UTF-8"?>
<svg viewBox="0 0 180 185" xmlns="http://www.w3.org/2000/svg">
 <path d="m164 82c6 48-24 92-68 98-45 6-86-28-92-75-6.79-48.1 23.6-92 68-98.3 44-6.2 85 27.3 92 75.3z" fill-opacity=".2" fill-rule="evenodd"/>
 <path d="m176 80c7 48-24 92-68 98-44 6.5-85.4-27.3-92-76-7-47.1 23.6-91 67.8-97.3 44.2-6.2 85.2 27.3 92.2 75.3z" fill="#e53434" fill-rule="evenodd"/>
 <path d="m160 82.5c5.4 38.3-19 73.5-54 78.5-36 5-69-22.1-74.1-60.5-5.3-38.5 19-73.5 54.1-78.5 36-5 69 22 74 60.5z" fill="#e8e8e8" fill-rule="evenodd"/>
 <path d="m66,137c4-14 15-26.5 16.4-41-8.4-14-22.4-25-29.4-41 1-6 14-2.4 17.7-1.6 10.8,3.6 16.3,15.1 22.9,23.5 7.4-9.9 10.4-32.9 21.4-37.9 5,1 21,3 17,10-8.5,14-16.3,28.5-21,44 8,13 20.5,23 28.5,37 .5,7-13.5,5-18.5,4-8-6-13.2-15-21-21-7.1,6-7,28-16,29.6-3,.4-17-5.1-18.1-5.6" fill="#e53434"/>
</svg>
