<svg id="Layer_1" data-name="Layer 1" xmlns="http://www.w3.org/2000/svg" xmlns:xlink="http://www.w3.org/1999/xlink" viewBox="0 0 65.08 62.08"><defs><style>.cls-1{fill:none;}.cls-2{clip-path:url(#clip-path);}.cls-3{fill:url(#linear-gradient);}.cls-4{fill:#777;}.cls-5{clip-path:url(#clip-path-2);}.cls-6{fill:url(#linear-gradient-2);}</style><clipPath id="clip-path"><path class="cls-1" d="M29.24,40.26l1-3.76L28.33,34l1.12-2.52A17.64,17.64,0,0,1,29,27.92l-1.34-1.14.4-2.53-1.54-1.81.68-2.2-1-1.2,1.27-2.33L24.9,13.38l1-2.27-.33-.43.27-.81-.77-1,.57-1.21-.72-.48L25,4.79,19.2,22.08l-17.6,5L16.31,38l-.64,18.3L30.56,45.74l.1-4Z"/></clipPath><linearGradient id="linear-gradient" x1="2.5" y1="5" x2="2.5" y2="57" gradientUnits="userSpaceOnUse"><stop offset="0" stop-color="#2b7052"/><stop offset="0.77" stop-color="#ed1c24"/></linearGradient><clipPath id="clip-path-2"><path class="cls-1" d="M50,38,51.3,56.24,36,46.21h0l1-3.87L35.91,40.6l1.79-3.45-1.24-2.88,3.2-4.19-2.17-3,1-2.37-.8-1.57a9.83,9.83,0,0,1,2-1.61l-.63-1.22,1.7-2-1.95-3.78,1.45-2L40,12l.42-.73-.55-1.19L40.68,9l-.61-.61.52-2.28,0-.08L45,16.44l-.56.42,2,5.29,17.78,4.36Z"/></clipPath><linearGradient id="linear-gradient-2" x1="32.5" x2="32.5" y2="57" xlink:href="#linear-gradient"/></defs><title>star-broken</title><g class="cls-2"><rect class="cls-3" x="-29" y="5" width="63" height="52"/></g><path class="cls-4" d="M33.48,29.17,32,27.92a17.64,17.64,0,0,0,.42,3.54Z"/><g class="cls-5"><rect class="cls-6" x="1" y="5" width="63" height="52"/></g></svg>